[IMG]http://i1022.photobucket.com/albums/af345/bhoottt/WWE-NXT24thAug2010XvidVAMPIREROCKs_20100825-15003253.jpg[/IMG]
[IMG]http://i1022.photobucket.com/albums/af345/bhoottt/WWE-NXT24thAug2010XvidVAMPIREROCKs_20100825-15033996.jpg[/IMG]
[IMG]http://i1022.photobucket.com/albums/af345/bhoottt/WWE-NXT24thAug2010XvidVAMPIREROCKs_20100825-15030621.jpg[/IMG]
[IMG]http://i1022.photobucket.com/albums/af345/bhoottt/WWE-NXT24thAug2010XvidVAMPIREROCKs_20100825-15013820.jpg[/IMG]
[IMG]http://i1022.photobucket.com/albums/af345/bhoottt/WWE-NXT24thAug2010XvidVAMPIREROCKs_20100825-15043939.jpg[/IMG]

Video
ID                               : 0
Format                           : MPEG-4 Visual
Format profile                   : Advanced Simple@L5
Format settings, BVOP            : Yes
Format settings, QPel            : No
Format settings, GMC             : No warppoints
Format settings, Matrix          : Default (H.263)
Codec ID                         : XVID
Codec ID/Hint                    : XviD
Duration                         : 45mn 14s
Bit rate                         : 900 Kbps
Width                            : 640 pixels
Height                           : 352 pixels
Display aspect ratio             : 16:9
Frame rate                       : 29.970 fps
Resolution                       : 8 bits
Colorimetry                      : 4:2:0
Scan type                        : Progressive
Bits/(Pixel*Frame)               : 0.133
Stream size                      : 291 MiB (93%)
Writing library                  : XviD 1.2.1 (UTC 2008-12-04)

Audio
ID                               : 1
Format                           : MPEG Audio
Format version                   : Version 2
Format profile                   : Layer 3
Mode                             : Joint stereo
Format_Settings_ModeExtension    : MS Stereo
Codec ID                         : 55
Codec ID/Hint                    : MP3
Duration                         : 45mn 14s
Bit rate mode                    : Constant
Bit rate                         : 56.0 Kbps
Channel(s)                       : 2 channels
Sampling rate                    : 24.0 KHz
Stream size                      : 18.1 MiB (6%)